<svg width="476" height="1" viewBox="0 0 476 1" fill="none" xmlns="http://www.w3.org/2000/svg">
<path fill-rule="evenodd" clip-rule="evenodd" d="M3.96667 1H0V0H3.96667V1ZM19.8333 1H11.9V0H19.8333V1ZM35.7 1H27.7667V0H35.7V1ZM51.5667 1H43.6333V0H51.5667V1ZM67.4333 1H59.5V0H67.4333V1ZM83.3 1H75.3667V0H83.3V1ZM99.1667 1H91.2333V0H99.1667V1ZM115.033 1H107.1V0H115.033V1ZM130.9 1H122.967V0H130.9V1ZM146.767 1H138.833V0H146.767V1ZM162.633 1H154.7V0H162.633V1ZM178.5 1H170.567V0H178.5V1ZM194.367 1H186.433V0H194.367V1ZM210.233 1H202.3V0H210.233V1ZM226.1 1H218.167V0H226.1V1ZM241.967 1H234.033V0H241.967V1ZM257.833 1H249.9V0H257.833V1ZM273.7 1H265.767V0H273.7V1ZM289.567 1H281.633V0H289.567V1ZM305.433 1H297.5V0H305.433V1ZM321.3 1H313.367V0H321.3V1ZM337.167 1H329.233V0H337.167V1ZM353.033 1H345.1V0H353.033V1ZM368.9 1H360.966V0H368.9V1ZM384.766 1H376.833V0H384.766V1ZM400.633 1H392.7V0H400.633V1ZM416.5 1H408.566V0H416.5V1ZM432.366 1H424.433V0H432.366V1ZM448.233 1H440.3V0H448.233V1ZM464.1 1H456.166V0H464.1V1ZM476 1H472.033V0H476V1Z" fill="white" fill-opacity="0.5"/>
</svg>
